<?xml version="1.0" encoding="utf-8"?>
<!-- Generator: Adobe Illustrator 17.0.0, SVG Export Plug-In . SVG Version: 6.00 Build 0)  -->
<!DOCTYPE svg PUBLIC "-//W3C//DTD SVG 1.1//EN" "http://www.w3.org/Graphics/SVG/1.1/DTD/svg11.dtd">
<svg version="1.1" id="Layer_1" xmlns="http://www.w3.org/2000/svg" xmlns:xlink="http://www.w3.org/1999/xlink" x="0px" y="0px"
	 width="232px" height="68px" viewBox="0 0 232 68" enable-background="new 0 0 232 68" xml:space="preserve">
<title>tabler</title>
<desc>Created with Sketch.</desc>
<path fill="#666666" d="M101.907,45.021c0.345,0.422,0.536,0.919,0.536,1.417c0,0.65-0.306,1.302-0.804,1.723
	c-0.421,0.383-0.958,0.536-1.455,0.536c-0.612,0-1.263-0.268-1.723-0.804l-0.996-1.226c-1.952,1.302-4.288,2.029-6.776,2.029
	c-7.083,0-12.825-6.011-12.825-13.399c0-7.389,5.743-13.399,12.825-13.399s12.864,6.01,12.864,13.399
	c0,3.14-1.072,6.049-2.795,8.346L101.907,45.021z M94.595,43.223l-1.685-2.029c-0.345-0.421-0.536-0.957-0.536-1.455
	c0-0.65,0.268-1.263,0.804-1.684c0.421-0.346,0.919-0.537,1.417-0.537c0.651,0,1.302,0.307,1.723,0.805l1.455,1.761
	c0.842-1.378,1.302-3.024,1.302-4.785c0-4.939-3.752-8.92-8.384-8.92c-4.594,0-8.346,3.981-8.346,8.92
	c0,4.938,3.752,8.92,8.346,8.92C92.106,44.218,93.408,43.873,94.595,43.223z"/>
<path fill="#666666" d="M106.61,46.477V24.119c0-1.225,0.996-2.22,2.221-2.22h6.087c0.229,0,2.259,0.038,4.365,1.072
	c2.986,1.493,4.632,4.25,4.632,7.848c0,0.23-0.038,2.297-1.071,4.364c-1.493,2.948-4.326,4.595-7.925,4.595h-3.829v6.699
	c0,1.226-0.996,2.221-2.259,2.221C107.606,48.697,106.61,47.702,106.61,46.477z M111.09,35.298h3.829
	c1.915,0,3.139-0.651,3.867-2.029c0.612-1.148,0.651-2.374,0.651-2.45c0-1.914-0.689-3.139-2.145-3.867
	c-1.149-0.574-2.374-0.574-2.374-0.574h-3.829V35.298z"/>
<path fill="#666666" d="M141.14,46.477c0,1.188-0.995,2.221-2.221,2.221c-0.88,0-1.646-0.498-1.99-1.225
	c-0.805,0.421-1.685,0.727-2.642,0.918c-0.307,0.039-1.226,0.269-2.412,0.269c-3.254,0-5.513-1.646-6.202-4.556
	c-0.115-0.422-0.153-0.843-0.153-1.264c0-1.072,0.345-2.105,0.995-2.948c0.881-1.148,2.719-2.526,6.854-2.68
	c0.574,0,1.11-0.038,1.685-0.038c0.421,0,0.919,0,1.454,0.076c-0.114-0.612-0.383-1.264-0.766-1.493
	c-0.574-0.307-1.263-0.459-1.914-0.459c-1.455,0-2.909,0.65-3.714,1.302c-0.421,0.344-0.918,0.497-1.416,0.497
	c-0.65,0-1.264-0.268-1.723-0.804c-0.345-0.421-0.498-0.919-0.498-1.417c0-0.65,0.269-1.301,0.804-1.722
	c1.532-1.263,3.408-2.067,5.476-2.259c0.344-0.038,0.65-0.038,0.995-0.038c1.531,0,2.986,0.344,4.173,0.995
	c3.063,1.723,3.178,5.743,3.178,6.164v6.011L141.14,46.477z M136.354,41.729c-0.269-0.038-0.689-0.076-1.302-0.076
	c-0.498,0-1.034,0-1.953,0.038c-1.761,0.076-2.756,0.536-3.024,0.881c-0.038,0.076-0.114,0.152-0.114,0.306
	c0,0.038,0.038,0.115,0.038,0.191c0.114,0.46,0.268,1.11,1.876,1.11c0.689,0,1.264-0.115,1.455-0.153
	c0.076-0.038,0.114-0.038,0.152-0.038c1.417-0.268,2.298-1.11,2.681-1.8L136.354,41.729z"/>
<path fill="#666666" d="M153.119,33.077c0,1.225-0.995,2.221-2.22,2.221c-0.728,0-1.685,0.114-2.067,0.688
	c-0.115,0.191-0.153,0.422-0.153,0.422v10.068c0,1.226-0.995,2.221-2.259,2.221c-1.226,0-2.221-0.995-2.221-2.221V33.077
	c0-1.263,0.995-2.259,2.221-2.259c0.574,0,1.072,0.191,1.455,0.536c0.842-0.345,1.837-0.536,3.024-0.536
	C152.124,30.818,153.119,31.814,153.119,33.077z"/>
<path fill="#666666" d="M154.343,39.777c0-4.939,3.752-8.959,8.385-8.959c1.187,0,2.335,0.268,3.445,0.804
	c0.804,0.344,1.264,1.148,1.264,1.991c0,0.345-0.077,0.651-0.23,0.957c-0.383,0.804-1.148,1.302-1.99,1.302
	c-0.307,0-0.651-0.077-0.957-0.23c-0.498-0.229-0.996-0.344-1.531-0.344c-2.145,0-3.905,1.99-3.905,4.479
	c0,2.45,1.761,4.44,3.905,4.44c0.535,0,1.033-0.114,1.531-0.345c0.306-0.152,0.612-0.191,0.919-0.191
	c0.842,0,1.646,0.46,2.028,1.264c0.153,0.307,0.23,0.612,0.23,0.957c0,0.843-0.46,1.646-1.264,2.029
	c-1.11,0.498-2.259,0.766-3.445,0.766C158.095,48.697,154.343,44.678,154.343,39.777z"/>
<path fill="#666666" d="M176.622,48.659c-2.336-0.115-4.364-1.11-5.743-2.833c-1.263-1.608-1.914-3.714-1.914-6.088
	c0-4.938,3.522-8.92,7.811-8.92c2.144,0,4.135,0.881,5.589,2.527c1.455,1.57,2.221,3.713,2.221,6.01
	c0,1.226-0.995,2.259-2.221,2.259h-8.69c0.383,1.226,1.226,2.527,3.178,2.604h0.229c0.574,0,1.646,0,2.604-0.688
	c0.383-0.23,0.804-0.345,1.226-0.345c0.727,0,1.454,0.345,1.875,0.995c0.269,0.345,0.383,0.766,0.383,1.187
	c0,0.728-0.383,1.493-1.033,1.914c-1.838,1.226-3.752,1.417-4.824,1.417C177.005,48.697,176.775,48.697,176.622,48.659z
	 M179.646,37.135c-0.574-1.148-1.608-1.876-2.871-1.876c-1.072,0-2.067,0.767-2.681,1.876H179.646z"/>
<path fill="#666666" d="M196.563,33.077c0,1.225-0.995,2.221-2.22,2.221c-0.728,0-1.685,0.114-2.067,0.688
	c-0.115,0.191-0.153,0.422-0.153,0.422v10.068c0,1.226-0.995,2.221-2.259,2.221c-1.226,0-2.221-0.995-2.221-2.221V33.077
	c0-1.263,0.995-2.259,2.221-2.259c0.574,0,1.072,0.191,1.455,0.536c0.842-0.345,1.837-0.536,3.024-0.536
	C195.568,30.818,196.563,31.814,196.563,33.077z"/>
<path fill="#666666" d="M201.845,27.526c-1.226,0-2.221-0.995-2.221-2.259c0-1.225,0.995-2.22,2.221-2.22
	c1.225,0,2.259,0.995,2.259,2.22C204.104,26.531,203.069,27.526,201.845,27.526z M199.624,46.477V33.077
	c0-1.225,0.995-2.259,2.221-2.259c1.225,0,2.259,1.034,2.259,2.259v13.399c0,1.226-1.034,2.221-2.259,2.221
	C200.619,48.697,199.624,47.702,199.624,46.477z"/>
<path fill="#666666" d="M222.784,46.477c0,1.188-0.995,2.221-2.221,2.221c-0.88,0-1.646-0.498-1.99-1.225
	c-0.805,0.421-1.685,0.727-2.642,0.918c-0.307,0.039-1.226,0.269-2.412,0.269c-3.254,0-5.513-1.646-6.202-4.556
	c-0.115-0.422-0.153-0.843-0.153-1.264c0-1.072,0.345-2.105,0.995-2.948c0.881-1.148,2.719-2.526,6.854-2.68
	c0.574,0,1.11-0.038,1.685-0.038c0.421,0,0.919,0,1.454,0.076c-0.114-0.612-0.383-1.264-0.766-1.493
	c-0.574-0.307-1.263-0.459-1.914-0.459c-1.455,0-2.909,0.65-3.714,1.302c-0.421,0.344-0.918,0.497-1.416,0.497
	c-0.65,0-1.264-0.268-1.723-0.804c-0.345-0.421-0.498-0.919-0.498-1.417c0-0.65,0.269-1.301,0.804-1.722
	c1.532-1.263,3.408-2.067,5.476-2.259c0.344-0.038,0.65-0.038,0.995-0.038c1.531,0,2.986,0.344,4.173,0.995
	c3.063,1.723,3.178,5.743,3.178,6.164v6.011L222.784,46.477z M217.999,41.729c-0.269-0.038-0.689-0.076-1.302-0.076
	c-0.498,0-1.034,0-1.953,0.038c-1.761,0.076-2.756,0.536-3.024,0.881c-0.038,0.076-0.114,0.152-0.114,0.306
	c0,0.038,0.038,0.115,0.038,0.191c0.114,0.46,0.268,1.11,1.876,1.11c0.689,0,1.264-0.115,1.455-0.153
	c0.076-0.038,0.114-0.038,0.152-0.038c1.417-0.268,2.298-1.11,2.681-1.8L217.999,41.729z"/>
<path fill="#1C7ED6" d="M25.165,23.5c-1.543,0-2.877,0.562-4,1.685c-1.123,1.123-1.685,2.491-1.685,4.103v10.335
	c0,1.612,0.561,2.98,1.685,4.103c1.123,1.123,2.456,1.685,4,1.685c1.226,0,2.212-0.269,2.956-0.806l-2.584-3.762
	c-0.593-0.868-0.889-1.619-0.889-2.253c0-0.661,0.248-1.24,0.744-1.736c0.496-0.496,1.109-0.744,1.84-0.744
	c0.73,0,1.333,0.238,1.809,0.713s0.858,1.01,1.147,1.602l0.661,0.951V29.288c0-1.612-0.562-2.98-1.685-4.103
	C28.041,24.062,26.708,23.5,25.165,23.5z"/>
<path fill="#1C7ED6" d="M51.518,23.5h-7.234v8.474h7.234c1.116,0,2.084-0.41,2.904-1.23c0.82-0.82,1.23-1.822,1.23-3.007
	c0-1.185-0.41-2.187-1.23-3.007C53.602,23.91,52.634,23.5,51.518,23.5z"/>
<path fill="#1C7ED6" d="M67.741,16.91c-1.552-6.221-6.409-11.078-12.63-12.63c-11.625-1.828-23.464-1.828-35.089,0
	c-6.22,1.552-11.077,6.409-12.63,12.63c-1.828,11.625-1.828,23.464,0,35.089c1.552,6.221,6.409,11.078,12.63,12.63
	c11.625,1.828,23.464,1.828,35.089,0c6.221-1.552,11.078-6.409,12.63-12.63C69.567,40.374,69.567,28.535,67.741,16.91z
	 M36.016,39.622c0,2.026-0.462,3.79-1.385,5.291l0.496,0.724c0.592,0.868,0.889,1.619,0.889,2.253c0,0.661-0.248,1.24-0.744,1.736
	c-0.496,0.496-1.109,0.744-1.84,0.744c-0.731,0-1.343-0.262-1.84-0.785c-0.4-0.372-0.634-0.634-0.703-0.785
	c-1.475,1.047-3.383,1.571-5.725,1.571c-3.018,0-5.581-1.054-7.689-3.162s-3.162-4.637-3.162-7.586V29.288
	c0-2.949,1.054-5.477,3.162-7.586c2.108-2.108,4.671-3.162,7.689-3.162s5.581,1.054,7.689,3.162
	c2.108,2.108,3.162,4.637,3.162,7.586L36.016,39.622L36.016,39.622z M58.111,34.227c-1.805,1.805-4.003,2.708-6.594,2.708h-7.234
	V47.89c0,0.661-0.248,1.24-0.744,1.736c-0.496,0.496-1.109,0.744-1.84,0.744c-0.731,0-1.343-0.248-1.84-0.744
	c-0.496-0.496-0.744-1.075-0.744-1.736V21.02c0-0.661,0.248-1.24,0.744-1.736c0.496-0.496,1.109-0.744,1.84-0.744h9.818
	c2.591,0,4.788,0.903,6.594,2.708c1.805,1.805,2.708,3.969,2.708,6.49C60.819,30.259,59.916,32.422,58.111,34.227z"/>
</svg>
