<?xml version="1.0" encoding="utf-8"?>
<!-- Generator: Adobe Illustrator 17.0.0, SVG Export Plug-In . SVG Version: 6.00 Build 0)  -->
<!DOCTYPE svg PUBLIC "-//W3C//DTD SVG 1.1//EN" "http://www.w3.org/Graphics/SVG/1.1/DTD/svg11.dtd">
<svg version="1.1" id="Layer_1" xmlns="http://www.w3.org/2000/svg" xmlns:xlink="http://www.w3.org/1999/xlink" x="0px" y="0px"
	 width="841.89px" height="595.28px" viewBox="0 0 841.89 595.28" enable-background="new 0 0 841.89 595.28" xml:space="preserve">
<path fill="#1C7ED6" d="M315.945,199.763c-13.64,0-25.422,4.963-35.346,14.887c-9.926,9.927-14.887,22.011-14.887,36.259v91.332
	c0,14.248,4.96,26.335,14.887,36.259c9.924,9.927,21.706,14.887,35.346,14.887c10.837,0,19.545-2.374,26.121-7.123l-22.833-33.245
	c-5.238-7.672-7.855-14.308-7.855-19.91c0-5.846,2.192-10.96,6.576-15.344s9.801-6.576,16.257-6.576
	c6.453,0,11.782,2.101,15.983,6.302c4.201,4.201,7.581,8.922,10.138,14.156l5.845,8.403v-89.141
	c0-14.248-4.963-26.332-14.887-36.259C341.364,204.726,329.581,199.763,315.945,199.763z"/>
<path fill="#1C7ED6" d="M548.84,199.763h-63.932v74.892h63.932c9.864,0,18.418-3.622,25.665-10.869
	c7.243-7.244,10.868-16.103,10.868-26.578c0-10.472-3.625-19.331-10.868-26.578C567.258,203.387,558.704,199.763,548.84,199.763z"/>
<path fill="#1C7ED6" d="M692.216,141.523c-13.717-54.974-56.641-97.898-111.615-111.615c-102.737-16.154-207.367-16.154-310.104,0
	C215.524,43.625,172.6,86.548,158.883,141.523c-16.154,102.737-16.154,207.367,0,310.104
	c13.717,54.974,56.641,97.898,111.615,111.615c102.737,16.154,207.367,16.154,310.104,0
	c54.974-13.717,97.898-56.641,111.615-111.615C708.352,348.888,708.352,244.261,692.216,141.523z M411.843,342.24
	c0,17.901-4.082,33.49-12.238,46.762l4.384,6.394c5.234,7.672,7.854,14.311,7.854,19.91c0,5.846-2.192,10.96-6.576,15.344
	c-4.384,4.384-9.804,6.576-16.257,6.576c-6.456,0-11.873-2.314-16.257-6.941c-3.534-3.288-5.603-5.6-6.211-6.941
	c-13.032,9.256-29.897,13.883-50.598,13.883c-26.669,0-49.319-9.315-67.951-27.947s-27.947-40.977-27.947-67.038v-91.332
	c0-26.058,9.315-48.406,27.947-67.038c18.632-18.631,41.282-27.947,67.951-27.947s49.319,9.316,67.951,27.947
	c18.632,18.632,27.948,40.979,27.948,67.038V342.24z M607.111,294.565c-15.955,15.955-35.377,23.929-58.271,23.929h-63.932v96.812
	c0,5.846-2.192,10.96-6.576,15.344s-9.804,6.576-16.257,6.576c-6.456,0-11.873-2.192-16.257-6.576
	c-4.385-4.384-6.576-9.498-6.576-15.344V177.843c0-5.845,2.191-10.96,6.576-15.344c4.384-4.384,9.801-6.576,16.257-6.576h86.765
	c22.894,0,42.315,7.977,58.271,23.929c15.951,15.955,23.929,35.072,23.929,57.356C631.039,259.494,623.062,278.613,607.111,294.565z
	"/>
</svg>
